<?xml version="1.0" encoding="UTF-8"?>
<svg id="Layer_1" xmlns="http://www.w3.org/2000/svg" version="1.1" viewBox="0 0 613.8 99.69">
  <!-- Generator: Adobe Illustrator 29.6.1, SVG Export Plug-In . SVG Version: 2.1.1 Build 9)  -->
  <defs>
    <style>
      .st0 {
        fill: #f1f4ff;
      }
    </style>
  </defs>
  <g>
    <path class="st0" d="M178.22,52.35c0,16.52-12.13,29.38-28.33,29.38h-22.98c-1.28,0-1.99-.71-1.99-1.99V24.96c0-1.28.71-1.99,1.99-1.99h22.98c16.2,0,28.33,12.86,28.33,29.38ZM167.1,52.35c0-10.85-7.01-18.3-17.21-18.3h-13.43v36.6h13.43c10.2,0,17.21-7.45,17.21-18.3Z"/>
    <path class="st0" d="M227.36,60.78c0,.9-.06,1.74-.13,2.58-.15,1.28-.94,1.85-2.14,1.85h-29.67c1.47,5.96,6,8.69,11.37,8.69,3.17,0,6-1.26,7.66-3.06.75-.69,1.4-1.11,2.45-1.11l6.72-.06c1.45,0,2.25.92,1.64,2.18-3.17,7.07-10.05,11.02-18.61,11.02-13.66,0-22.5-9.57-22.5-22.12s9.04-22.12,22.24-22.12c12.4,0,20.97,9.78,20.97,22.16ZM216.54,56.69c-1.25-6-5.66-8.35-10.21-8.35-5.74,0-9.67,3.1-10.96,8.35h21.16Z"/>
    <path class="st0" d="M292.74,24.96v54.77c0,1.28-.71,1.99-1.99,1.99h-7.55c-1.28,0-1.99-.71-1.99-1.99v-37.47l-12.36,28.55c-.42,1.05-1.2,1.51-2.31,1.51h-5.08c-1.11,0-1.89-.46-2.31-1.51l-12.36-28.55v37.47c0,1.28-.71,1.99-1.99,1.99h-7.55c-1.28,0-1.99-.71-1.99-1.99V24.96c0-1.28.71-1.99,1.99-1.99h9.53c1.11,0,1.89.46,2.31,1.51l14.92,34.41,14.92-34.41c.42-1.05,1.2-1.51,2.31-1.51h9.53c1.28,0,1.99.71,1.99,1.99Z"/>
    <path class="st0" d="M344.15,60.78c0,.9-.06,1.74-.13,2.58-.15,1.28-.94,1.85-2.14,1.85h-29.67c1.47,5.96,6,8.69,11.37,8.69,3.17,0,6-1.26,7.66-3.06.75-.69,1.4-1.11,2.45-1.11l6.72-.06c1.45,0,2.25.92,1.64,2.18-3.17,7.07-10.05,11.02-18.61,11.02-13.66,0-22.5-9.57-22.5-22.12s9.04-22.12,22.24-22.12c12.4,0,20.97,9.78,20.97,22.16ZM333.33,56.69c-1.25-6-5.66-8.35-10.21-8.35-5.74,0-9.67,3.1-10.96,8.35h21.16Z"/>
    <path class="st0" d="M351.5,79.73V23.29c0-1.28.71-1.99,1.99-1.99h6.84c1.28,0,1.99.71,1.99,1.99v56.45c0,1.28-.71,1.99-1.99,1.99h-6.84c-1.28,0-1.99-.71-1.99-1.99Z"/>
    <path class="st0" d="M370.04,60.74c0-12.49,9.88-22.12,22.2-22.12s22.2,9.63,22.2,22.12-9.88,22.12-22.2,22.12-22.2-9.63-22.2-22.12ZM403.61,60.74c0-6.8-4.95-11.58-11.38-11.58s-11.37,4.78-11.37,11.58,4.95,11.58,11.37,11.58,11.38-4.78,11.38-11.58Z"/>
    <path class="st0" d="M470.98,79.48c.48,1.43-.21,2.25-1.66,2.25h-8.42c-1.11,0-1.91-.5-2.25-1.66l-2.83-8.88h-22.55l-2.83,8.88c-.34,1.15-1.13,1.66-2.25,1.66h-8.42c-1.45,0-2.14-.82-1.66-2.25l18.68-54.85c.33-1.09,1.2-1.66,2.31-1.66h10.87c1.11,0,1.97.57,2.31,1.66l18.68,54.85h0ZM452.39,60.36l-7.82-24.55-7.82,24.55h15.65Z"/>
    <path class="st0" d="M521.84,60.74c0,12.49-9.25,22.12-20.46,22.12-6.13,0-10.62-2.29-13.62-6.09v19.75c0,1.28-.71,1.99-1.99,1.99h-6.84c-1.28,0-1.99-.71-1.99-1.99v-54.77c0-1.28.71-1.99,1.99-1.99h6.84c1.28,0,1.99.71,1.99,1.99v2.96c3-3.8,7.49-6.09,13.62-6.09,11.21,0,20.46,9.63,20.46,22.12ZM511.02,60.74c0-7.05-4.95-11.84-11.63-11.84s-11.63,4.78-11.63,11.84,4.95,11.84,11.63,11.84,11.63-4.78,11.63-11.84Z"/>
    <path class="st0" d="M574.4,60.74c0,12.49-9.25,22.12-20.46,22.12-6.13,0-10.62-2.29-13.62-6.09v19.75c0,1.28-.71,1.99-1.99,1.99h-6.84c-1.28,0-1.99-.71-1.99-1.99v-54.77c0-1.28.71-1.99,1.99-1.99h6.84c1.28,0,1.99.71,1.99,1.99v2.96c3-3.8,7.49-6.09,13.62-6.09,11.21,0,20.46,9.63,20.46,22.12ZM563.57,60.74c0-7.05-4.95-11.84-11.63-11.84s-11.63,4.78-11.63,11.84,4.95,11.84,11.63,11.84,11.63-4.78,11.63-11.84Z"/>
    <path class="st0" d="M613.8,69.54c0,8.96-7.72,13.33-16.98,13.33-8.58,0-15.86-3.99-16.83-12.42-.15-1.36.65-2.08,1.93-2.08h6.71c1.2,0,1.64.65,2.14,1.72.69,2.22,2.96,3.25,6.04,3.25,3.97,0,6.15-1.36,6.15-3.8,0-7.2-22.6-1.45-22.6-17.58,0-8.84,7.72-13.33,16.45-13.33,7.83,0,15.02,3.99,15.99,12.42.15,1.36-.65,2.08-1.93,2.08h-6.72c-1.2,0-1.64-.65-2.14-1.78-.63-2.16-2.75-3.19-5.2-3.19-3.44,0-5.62,1.36-5.62,3.8,0,7.32,22.6,1.38,22.6,17.58Z"/>
  </g>
  <g>
    <path class="st0" d="M60.28,52.69c0,7.34-5.95,13.28-13.28,13.28h-2.37c-3.52,0-6.9,1.4-9.39,3.89l-4.61,4.61-.17.17c-2.49,2.49-3.89,5.87-3.89,9.39v2.37c0,3.67-1.49,6.99-3.89,9.39-1.07,1.07-2.32,1.96-3.71,2.62-1.72.82-3.65,1.27-5.68,1.27-3.67,0-6.99-1.49-9.39-3.89C1.49,93.4,0,90.08,0,86.41,0,79.07,5.95,73.13,13.28,73.13h2.37c3.52,0,6.9-1.4,9.39-3.89l4.78-4.78c2.49-2.49,3.89-5.87,3.89-9.39v-2.37c0-3.67,1.49-6.99,3.89-9.39,1.82-1.82,4.17-3.12,6.8-3.64.84-.17,1.7-.26,2.59-.26s1.75.09,2.59.26c6.09,1.2,10.69,6.58,10.69,13.03Z"/>
    <path class="st0" d="M48.49,0c-.44,0-.9.02-1.34.08h2.7c-.44-.06-.9-.08-1.36-.08Z"/>
    <path class="st0" d="M62.19,13.71c0,4.29-1.97,8.15-5.08,10.66-.12.1-.25.2-.38.3-2.29,1.72-5.16,2.75-8.24,2.75h-2.43c-3.64,0-7.11,1.44-9.7,4.01l-4.75,4.75-.17.17c-2.57,2.59-4.01,6.06-4.01,9.7v2.43c0,3.8-1.53,7.21-4.03,9.7-1.09,1.09-2.4,2.01-3.82,2.7-1.78.84-3.78,1.3-5.87,1.3-3.8,0-7.21-1.53-9.68-4.01S0,52.28,0,48.49c0-7.55,6.13-13.69,13.71-13.69h2.43c3.64,0,7.13-1.46,9.7-4.03l4.93-4.93c2.57-2.57,4.03-6.06,4.03-9.7v-2.43c0-3.12,1.03-5.99,2.78-8.29.09-.13.19-.25.29-.38.31-.36.61-.71.94-1.04,1.88-1.88,4.29-3.2,7.02-3.74.42-.08.88-.15,1.32-.19h2.7c.46.04.88.12,1.32.19,6.29,1.22,11.02,6.79,11.02,13.44Z"/>
    <path class="st0" d="M92.49,73.46l-22.43,22.52c-2.37,2.38-5.59,3.72-8.95,3.72h-28.87l42.38-42.56c4-4.01,4-10.49,0-14.51l-15.17-15.23s.06-.05.09-.07c4.12-3.34,6.48-8.31,6.48-13.62S63.53,3.32,59.54.08h1.58c3.36,0,6.58,1.33,8.95,3.72l22.43,22.52c12.98,13.04,12.98,34.11,0,47.15Z"/>
    <circle class="st0" cx="12.75" cy="12.82" r="12.75"/>
  </g>
</svg>